<svg xmlns="http://www.w3.org/2000/svg" viewBox="0 0 67 79"><defs><style>.cls-1{fill:#42210b;stroke:#42210b;stroke-linecap:round;stroke-linejoin:round;}.cls-2{fill:#006837;}</style></defs><title>1</title><g id="图层_2" data-name="图层 2"><g id="图层_1-2" data-name="图层 1"><path class="cls-1" d="M39.88,61S44,23,44,8c0,0,2,51,4,52S39.88,61,39.88,61Z"/><path class="cls-2" d="M44.9,79S27.09,36.23,0,37.66c0,0,15.68-10,24.23-11.4,0,0,10-2.86,12.83,11.4S41.34,59,44.19,60.47,45.62,46.21,57,43.36c0,0,8.55-2.85,10,5.7,0,0-7.13-1.42-11.4,2.85C55.6,51.91,41.34,70.45,44.9,79Z"/><path class="cls-2" d="M44,14s7.77-6.43,10.76-7c0,0,3.59-1.79,9,1.79a18.71,18.71,0,0,0-6.58-6.57S45.2-5.58,44,8.17Z"/><path class="cls-2" d="M44,14S36.23,7.57,33.24,7c0,0-3.59-1.79-9,1.79a18.71,18.71,0,0,1,6.58-6.57S42.8-5.58,44,8.17Z"/><path class="cls-2" d="M47,32S58,31,57,20C57,20,48,20.09,47,32Z"/></g></g></svg>