<svg xmlns="http://www.w3.org/2000/svg" viewBox="0 0 80 120.16"><defs><style>.cls-1{fill:#006837;}.cls-2{fill:#42210b;stroke:#42210b;stroke-linecap:round;stroke-linejoin:round;stroke-width:2px;}</style></defs><title>2</title><g id="图层_2" data-name="图层 2"><g id="图层_1-2" data-name="图层 1"><path class="cls-1" d="M40.74,28.9A9.86,9.86,0,0,0,41,26c-.18-3.07-2-7.3-10.91-5.69,0,0-2.88.41.82,2.45a28.22,28.22,0,0,0,5.34,2C38.68,25.32,40.74,28.9,40.74,28.9Z"/><path class="cls-1" d="M49,72a8.68,8.68,0,0,1,7.47-9.35C64.78,61,65.61,56,65.61,56s3.33,5.82,0,6.65c-4.56,1.14-4.15,4.15-3.32,5a2.52,2.52,0,0,0,3.32,0,6.57,6.57,0,0,1-5.81,1.66C55.64,68.46,49,72,49,72Z"/><path class="cls-2" d="M37,98s6.06-64,6.06-89.28c0,0,4.87,85.86,6.94,89.28C52.53,102.18,37,98,37,98Z"/><path class="cls-1" d="M46.75,120.16S20,76,0,83c0,0,12-16,22-15,12,0,15.3,8.89,17,14,1,3,1.73,15.18,5,13,3-2,6.3-16.22,20-18,0,0,16-1,16,12,0,0-14-3-29,10C51,99,42.36,109.62,46.75,120.16Z"/><path class="cls-1" d="M43,54.06s10.58-8.75,14.65-9.57c0,0,4.89-2.44,12.21,2.44a25.35,25.35,0,0,0-9-9S44.63,27.4,43,46.12Z"/><path class="cls-1" d="M43,54.06s-10.58-8.75-14.65-9.57c0,0-4.89-2.44-12.21,2.44a25.35,25.35,0,0,1,9-9S41.37,27.4,43,46.12Z"/><path class="cls-1" d="M43,13.06s7.25-6,10-6.56c0,0,3.35-1.67,8.37,1.68A17.33,17.33,0,0,0,55.27,2S44.12-5.21,43,7.62Z"/><path class="cls-1" d="M43,13.06s-7.25-6-10-6.56c0,0-3.35-1.67-8.37,1.68A17.33,17.33,0,0,1,30.73,2S41.88-5.21,43,7.62Z"/></g></g></svg>