<svg xmlns="http://www.w3.org/2000/svg" viewBox="0 0 80 155.16"><defs><style>.cls-1{fill:#006837;}.cls-2{fill:#42210b;stroke:#42210b;stroke-linecap:round;stroke-linejoin:round;stroke-width:2px;}.cls-3{fill:#8c0e03;}</style></defs><title>3</title><g id="图层_2" data-name="图层 2"><g id="图层_1-2" data-name="图层 1"><path class="cls-1" d="M40.74,63.9A9.86,9.86,0,0,0,41,61c-.18-3.07-2-7.3-10.91-5.69,0,0-2.88.41.82,2.45a28.22,28.22,0,0,0,5.34,2C38.68,60.32,40.74,63.9,40.74,63.9Z"/><path class="cls-1" d="M49,107a8.68,8.68,0,0,1,7.47-9.35C64.78,96,65.61,91,65.61,91s3.33,5.82,0,6.65c-4.56,1.14-4.15,4.15-3.32,5a2.52,2.52,0,0,0,3.32,0,6.57,6.57,0,0,1-5.81,1.66C55.64,103.46,49,107,49,107Z"/><path class="cls-2" d="M37,132.39S43.06,47.51,43.06,14c0,0,4.87,113.86,6.94,118.39C52.53,137.94,37,132.39,37,132.39Z"/><path class="cls-1" d="M46.75,155.16S20,111,0,118c0,0,12-16,22-15,12,0,15.3,8.89,17,14,1,3,1.73,15.18,5,13,3-2,6.3-16.22,20-18,0,0,16-1,16,12,0,0-14-3-29,10C51,134,42.36,144.62,46.75,155.16Z"/><path class="cls-1" d="M43,89.06s10.58-8.75,14.65-9.57c0,0,4.89-2.44,12.21,2.44a25.35,25.35,0,0,0-9-9S44.63,62.4,43,81.12Z"/><path class="cls-1" d="M43,89.06s-10.58-8.75-14.65-9.57c0,0-4.89-2.44-12.21,2.44a25.35,25.35,0,0,1,9-9S41.37,62.4,43,81.12Z"/><path class="cls-1" d="M43,48.06s7.25-6,10-6.56c0,0,3.35-1.67,8.37,1.68A17.33,17.33,0,0,0,55.27,37S44.12,29.79,43,42.62Z"/><path class="cls-1" d="M43,48.06s-7.25-6-10-6.56c0,0-3.35-1.67-8.37,1.68A17.33,17.33,0,0,1,30.73,37S41.88,29.79,43,42.62Z"/><path class="cls-1" d="M43,17.73s5.4-4.47,7.48-4.89c0,0,2.49-1.24,6.22,1.25a12.91,12.91,0,0,0-4.56-4.57S43.83,4.12,43,13.67Z"/><path class="cls-1" d="M43,17.73s-5.4-4.47-7.48-4.89c0,0-2.49-1.24-6.22,1.25a12.91,12.91,0,0,1,4.56-4.57s8.31-5.4,9.14,4.15Z"/><path class="cls-1" d="M46,24a7.94,7.94,0,0,1,7-4S50,25,46,24Z"/><path class="cls-3" d="M42.67,0s-10.5,10.5,0,14C53.17,10.5,42.67,0,42.67,0Z"/></g></g></svg>