<svg xmlns="http://www.w3.org/2000/svg" viewBox="0 0 80 163.36"><defs><style>.cls-1{fill:#006837;}.cls-2{fill:#42210b;stroke:#42210b;stroke-linecap:round;stroke-linejoin:round;stroke-width:2px;}.cls-3{fill:#8c0e03;}</style></defs><title>5</title><g id="图层_2" data-name="图层 2"><g id="图层_1-2" data-name="图层 1"><path class="cls-1" d="M40.74,72.1A10,10,0,0,0,41,69.23c-.18-3.07-2-7.29-10.91-5.68,0,0-2.88.4.82,2.44a28.22,28.22,0,0,0,5.34,2C38.68,68.51,40.74,72.1,40.74,72.1Z"/><path class="cls-1" d="M49,115.19a8.68,8.68,0,0,1,7.47-9.35c8.31-1.66,9.14-6.65,9.14-6.65s3.33,5.82,0,6.65c-4.56,1.14-4.15,4.15-3.32,5a2.5,2.5,0,0,0,3.32,0,6.56,6.56,0,0,1-5.81,1.67C55.64,111.66,49,115.19,49,115.19Z"/><path class="cls-2" d="M37,140.59s6.06-84.89,6.06-118.4c0,0,4.87,113.86,6.94,118.4C52.53,146.14,37,140.59,37,140.59Z"/><path class="cls-1" d="M46.75,163.36S20,119.19,0,126.19c0,0,12-16,22-15,12,0,15.3,8.89,17,14,1,3,1.73,15.18,5,13,3-2,6.3-16.22,20-18,0,0,16-1,16,12,0,0-14-3-29,10C51,142.19,42.36,152.81,46.75,163.36Z"/><path class="cls-1" d="M43,97.26s10.58-8.76,14.65-9.58c0,0,4.89-2.44,12.21,2.45a25.33,25.33,0,0,0-9-9S44.63,70.59,43,89.31Z"/><path class="cls-1" d="M43,97.26S32.42,88.5,28.35,87.68c0,0-4.89-2.44-12.21,2.45a25.33,25.33,0,0,1,9-9S41.37,70.59,43,89.31Z"/><path class="cls-1" d="M43,56.26s7.25-6,10-6.56c0,0,3.35-1.68,8.37,1.67a17.33,17.33,0,0,0-6.14-6.14S44.12,38,43,50.81Z"/><path class="cls-1" d="M43,56.26s-7.25-6-10-6.56c0,0-3.35-1.68-8.37,1.67a17.33,17.33,0,0,1,6.14-6.14S41.88,38,43,50.81Z"/><path class="cls-1" d="M46,32.19a7.94,7.94,0,0,1,7-4S50,33.19,46,32.19Z"/><g id="开花4"><path class="cls-3" d="M37.57,21.59s7.23.46,9.79-5.37c0,0,1.75-4.78-.12-8.74,0,0-1.86-3.27-7.69-1.87,0,0-2.33-.46,1.17-3.26,0,0,3.26-2.57,6.06-2.34,0,0,5.36-.69,6.53,7.7,0,0,.7,6.76-2.1,9.56,0,0-2.57,4.67-7.23,5.13S37.45,22.4,37.57,21.59Z"/><path class="cls-3" d="M39.21,11.12a.66.66,0,0,1,.88.76c-.28,1.39-.71,4.69,1.09,4.69a4.52,4.52,0,0,0,4.67-2.8s1.16-3.26-.47-5.59c0,0-2.1-2.8-7.23-.7,0,0-5.83,2.33-4.43,8.16,0,0,.47,3.73,3.73,4.66,0,0,4.66.47,5.83-1.63,0,0,.47-.7-.47-.47s-2.56.94-4,.24c0,0-3.26-1.87-1.87-5.13A6.17,6.17,0,0,1,39.21,11.12Z"/></g></g></g></svg>