<svg xmlns="http://www.w3.org/2000/svg" viewBox="0 0 80 180.14"><defs><style>.cls-1{fill:#006837;}.cls-2{fill:#42210b;stroke:#42210b;stroke-linecap:round;stroke-linejoin:round;stroke-width:2px;}.cls-3{fill:#8c0e03;}</style></defs><title>6</title><g id="图层_2" data-name="图层 2"><g id="图层_1-2" data-name="图层 1"><path class="cls-1" d="M40.74,88.88A9.92,9.92,0,0,0,41,86c-.18-3.07-2-7.3-10.91-5.69,0,0-2.88.41.82,2.45a29,29,0,0,0,5.34,2C38.68,85.3,40.74,88.88,40.74,88.88Z"/><path class="cls-1" d="M49,132a8.68,8.68,0,0,1,7.47-9.35C64.78,121,65.61,116,65.61,116s3.33,5.81,0,6.65c-4.56,1.14-4.15,4.15-3.32,5a2.52,2.52,0,0,0,3.32,0,6.57,6.57,0,0,1-5.81,1.66C55.64,128.44,49,132,49,132Z"/><path class="cls-2" d="M37,157.37S43.06,72.49,43.06,39c0,0,4.87,113.86,6.94,118.39C52.53,162.92,37,157.37,37,157.37Z"/><path class="cls-1" d="M46.75,180.14S20,136,0,143c0,0,12-16,22-15,12,0,15.3,8.89,17,14,1,3,1.73,15.18,5,13,3-2,6.3-16.22,20-18,0,0,16-1,16,12,0,0-14-3-29,10C51,159,42.36,169.59,46.75,180.14Z"/><path class="cls-1" d="M43,114s10.58-8.76,14.65-9.57c0,0,4.89-2.44,12.21,2.44a25.35,25.35,0,0,0-9-9S44.63,87.38,43,106.1Z"/><path class="cls-1" d="M43,114s-10.58-8.76-14.65-9.57c0,0-4.89-2.44-12.21,2.44a25.35,25.35,0,0,1,9-9S41.37,87.38,43,106.1Z"/><path class="cls-1" d="M43,73s7.25-6,10-6.56c0,0,3.35-1.67,8.37,1.68A17.33,17.33,0,0,0,55.27,62S44.12,54.77,43,67.6Z"/><path class="cls-1" d="M43,73s-7.25-6-10-6.56c0,0-3.35-1.67-8.37,1.68A17.33,17.33,0,0,1,30.73,62S41.88,54.77,43,67.6Z"/><g id="开花5"><path class="cls-3" d="M60.68,14.9c1.12.45,2.81,1.65,4.78,4.76l0,0c.27.36,3.73,5.14,1.8,9.69,0,0-.05.08-.07.13-.45.7-4.69,7.35-5.29,8.8v0c-.16.44-3.16,8.57-10.62,9.45h-.06c-.44.09-6.68,1.26-12.66-4.4a.39.39,0,0,1-.08-.1c-.42-.52-4.25-5.27-7.59-6.44l-.15,0L25.62,36a.8.8,0,0,1-.67-.66c0-.3.11-.59.85-.59,1.48,0,6.22.29,7.4.88s7.94,3.13,9.93,2.71a.74.74,0,0,1,.33,0c1,.19,6.11.76,11.66-4.78,0,0,4.71-4.12,5.32-8.55,0,0,0,0,0-.07.08-.34.84-3.58.3-5.55a.24.24,0,0,0,0-.08c-.1-.28-.73-2-1.15-3.47A.81.81,0,0,1,60.68,14.9Z"/><path class="cls-3" d="M38.39,34.34s9.18.59,12.43-6.81c0,0,2.22-6.07-.15-11.1,0,0-2.36-4.15-9.77-2.37,0,0-3-.59,1.48-4.15,0,0,4.15-3.25,7.7-3,0,0,6.81-.89,8.29,9.77,0,0,.89,8.59-2.66,12.14,0,0-3.26,5.93-9.18,6.52S38.24,35.38,38.39,34.34Z"/><path class="cls-3" d="M40.47,21.05a.85.85,0,0,1,1.12,1c-.36,1.77-.9,6,1.39,6a5.74,5.74,0,0,0,5.92-3.56s1.48-4.14-.59-7.1c0,0-2.67-3.56-9.18-.89,0,0-7.41,3-5.63,10.36,0,0,.59,4.74,4.74,5.92,0,0,5.92.59,7.4-2.07,0,0,.59-.89-.59-.59s-3.26,1.18-5,.29c0,0-4.14-2.36-2.36-6.51C37.65,23.83,39,21.59,40.47,21.05Z"/><path class="cls-3" d="M58.37,9.25A12.66,12.66,0,0,0,50,1.37a2.45,2.45,0,0,0-1.14-.08,28,28,0,0,1-6.92-.11S31.58-2.67,26.84,3.55,23.28,9.17,23.28,13c0,0-3.84,8,1.78,15.1,0,0,5.63,5.93,8.29,6.22,0,0,2.82.74,1-1,0,0-5.92-5.92-1.78-15.69,0,0,4.74-9.77,12.73-11.25,0,0,6.22-.89,8.3.59a32.65,32.65,0,0,1,3.84,2.67c.45.44.24.41.45.54S58.49,9.62,58.37,9.25Z"/></g></g></g></svg>