<svg xmlns="http://www.w3.org/2000/svg" viewBox="0 0 80 189.59"><defs><style>.cls-1{fill:#006837;}.cls-2{fill:#42210b;stroke:#42210b;stroke-linecap:round;stroke-linejoin:round;stroke-width:2px;}.cls-3{fill:#8c0e03;}</style></defs><title>7_1</title><g id="图层_2" data-name="图层 2"><g id="图层_1-2" data-name="图层 1"><path class="cls-1" d="M40.74,98.33A9.92,9.92,0,0,0,41,95.47c-.18-3.07-2-7.3-10.91-5.69,0,0-2.88.41.82,2.44a28.73,28.73,0,0,0,5.34,2C38.68,94.75,40.74,98.33,40.74,98.33Z"/><path class="cls-1" d="M49,141.43a8.69,8.69,0,0,1,7.47-9.36c8.31-1.66,9.14-6.64,9.14-6.64s3.33,5.81,0,6.64c-4.56,1.14-4.15,4.16-3.32,5a2.52,2.52,0,0,0,3.32,0,6.57,6.57,0,0,1-5.81,1.66C55.64,137.89,49,141.43,49,141.43Z"/><path class="cls-2" d="M37,166.82s6.06-84.88,6.06-118.39c0,0,4.87,113.86,6.94,118.39C52.53,172.37,37,166.82,37,166.82Z"/><path class="cls-1" d="M46.75,189.59S20,145.43,0,152.43c0,0,12-16,22-15,12,0,15.3,8.89,17,14,1,3,1.73,15.18,5,13,3-2,6.3-16.22,20-18,0,0,16-1,16,12,0,0-14-3-29,10C51,168.43,42.36,179,46.75,189.59Z"/><path class="cls-1" d="M43,123.49s10.58-8.76,14.65-9.57c0,0,4.89-2.44,12.21,2.44a25.35,25.35,0,0,0-9-9S44.63,96.82,43,115.55Z"/><path class="cls-1" d="M43,123.49s-10.58-8.76-14.65-9.57c0,0-4.89-2.44-12.21,2.44a25.35,25.35,0,0,1,9-9S41.37,96.82,43,115.55Z"/><path class="cls-1" d="M43,82.49s7.25-6,10-6.56c0,0,3.35-1.67,8.37,1.68a17.33,17.33,0,0,0-6.14-6.14S44.12,64.22,43,77.05Z"/><path class="cls-1" d="M43,82.49s-7.25-6-10-6.56c0,0-3.35-1.67-8.37,1.68a17.33,17.33,0,0,1,6.14-6.14S41.88,64.22,43,77.05Z"/><path class="cls-1" d="M46,58.43a7.94,7.94,0,0,1,7-4S50,59.43,46,58.43Z"/><g id="开花7"><path class="cls-3" d="M31.22.3s1-1.45,7,2.06l.07,0a34.63,34.63,0,0,0,5.56,1.23h0c.43,0,8.54.21,9.75,0s4.68-.81,5.77-.43l.1,0c.37,0,2.86.31,2.86,4.16,0,4.15,3.46,6.75,4.58,8.31s4.78,6,5.61,7.07c0,0,2.9,3.93,1.26,6.84l0,.05c-4.4,5.9-11.68,7.28-14.24,7.58a.35.35,0,0,1-.32-.57,16.79,16.79,0,0,0,2.19-3.77.31.31,0,0,0,0-.08c.14-.77,2-11.93-6-17l-.1-.1c-.37-.58-3.45-5-11.77-6.38l-.08,0c-.47-.21-5.69-2.28-12.23,1.88,0,0-.94.52-1.35-1.56a23,23,0,0,0-.63-2.49A5.69,5.69,0,0,1,31.22.3Z"/><path class="cls-3" d="M55.2,20.74c.78.32,2,1.16,3.36,3.35l0,0c.18.25,2.61,3.61,1.25,6.8a.36.36,0,0,1,0,.09c-.32.49-3.3,5.16-3.71,6.18v0c-.12.31-2.22,6-7.46,6.63h0a10.47,10.47,0,0,1-8.89-3.09l-.06-.07c-.29-.36-3-3.7-5.33-4.52l-.11,0-3.6-.57a.55.55,0,0,1-.47-.47c0-.2.07-.41.59-.41a21.23,21.23,0,0,1,5.2.62c.81.41,5.58,2.2,7,1.9a.65.65,0,0,1,.24,0c.73.14,4.29.54,8.18-3.35,0,0,3.31-2.9,3.74-6,0,0,0,0,0,0a10,10,0,0,0,.21-3.91s0,0,0-.05c-.07-.2-.51-1.43-.81-2.44A.58.58,0,0,1,55.2,20.74Z"/><path class="cls-3" d="M39.54,34.4s6.45.41,8.73-4.79c0,0,1.56-4.26-.1-7.79,0,0-1.66-2.91-6.86-1.67,0,0-2.08-.41,1-2.91,0,0,2.91-2.28,5.4-2.08,0,0,4.79-.62,5.83,6.86,0,0,.62,6-1.88,8.53,0,0-2.28,4.16-6.44,4.57S39.44,35.12,39.54,34.4Z"/><path class="cls-3" d="M41,25.07a.59.59,0,0,1,.79.67c-.25,1.24-.63,4.19,1,4.19a4,4,0,0,0,4.16-2.5s1-2.91-.41-5c0,0-1.87-2.49-6.45-.62,0,0-5.2,2.08-4,7.27,0,0,.42,3.33,3.33,4.16,0,0,4.16.42,5.2-1.45,0,0,.41-.63-.42-.42s-2.29.83-3.54.21c0,0-2.91-1.66-1.66-4.57A5.48,5.48,0,0,1,41,25.07Z"/><path class="cls-3" d="M53.57,16.78a8.89,8.89,0,0,0-5.87-5.54,1.67,1.67,0,0,0-.8-.05A20.14,20.14,0,0,1,42,11.11s-7.28-2.7-10.61,1.66-2.49,3.95-2.49,6.66c0,0-2.71,5.61,1.24,10.6,0,0,4,4.16,5.83,4.37,0,0,2,.52.72-.73,0,0-4.15-4.16-1.24-11,0,0,3.32-6.86,8.94-7.9,0,0,4.36-.63,5.82.41A24.67,24.67,0,0,1,53,17c.31.32.17.3.31.39S53.66,17,53.57,16.78Z"/><path class="cls-3" d="M30.05,11.9a2.11,2.11,0,0,1-.63,1l-.48.68c-.34.6-2.2,4-2.29,6.45v.42a14.25,14.25,0,0,0,2.68,10.16l.05.05A15.08,15.08,0,0,0,33.72,34s.61.41-.6.21h0c-.43-.12-5.41-1.6-7.23-5.14a.24.24,0,0,0-.06-.09c-.46-.53-5.46-6.45-3.51-12a.14.14,0,0,0,0-.06,7.3,7.3,0,0,1,7.23-5.57A.51.51,0,0,1,30.05,11.9Z"/><path class="cls-3" d="M26.86,5.49s-1-1.45-10.81,5.2c0,0-3.33,1.25-4,2.29,0,0-2.71,2.7,2.7,10.81a18.75,18.75,0,0,0,7.28,4.58s1.24.83.62-1.25c0,0-2.81-5.1-1.77-10.09a10.52,10.52,0,0,1,2.29-4.78S28.63,5.18,26.86,5.49Z"/><path class="cls-3" d="M29.46,37a6.78,6.78,0,0,1,4.36,0s1.67.62,4.79,4.15c0,0,2.07,2.08,2.91,2.71,0,0,1.24.83-.63.83,0,0-5,0-7.07-2.29C33.82,42.4,27.59,38.45,29.46,37Z"/><path class="cls-3" d="M23.36,29.37c.25-.51.69-.9,1.21.66,0,0,2,11.33,11.33,15.07,0,0,7.9,3.54,18.92-1,0,0,2.08-1.66.84,1,0,0-5.41,10.19-14.56,10,0,0-1.45.42-3.74-1.45,0,0-.93-.62-3.57,0a6.75,6.75,0,0,1-4.88-.7c-2.25-1.27-4.9-4-5.69-9.91a55.7,55.7,0,0,1-.14-12.65A2.77,2.77,0,0,1,23.36,29.37Z"/><path class="cls-3" d="M59.13,39.09c.17,0,1.93-.27,2.14-.22A12.86,12.86,0,0,0,66,36.68s2.28-1.24.83,1.87c0,0-1.87,5.41-6,8.32,0,0-5.41,4.78-8.32,5,0,0-.93.11.73-1.35,0,0,3.33-2.91,4-5.41,0,0,.15-2.26.23-4.41A1.64,1.64,0,0,1,59.13,39.09Z"/><path class="cls-3" d="M38.71,56.44s12.89.62,21-7.28c0,0,6.24-4.58,8.52-9.77,0,0,1.88-6,2.92-5.83,0,0,5.19,2.29,5.61,7.07,0,0,.91,3.66-1.88,5.14a12.08,12.08,0,0,0-1.72,1.07A43.83,43.83,0,0,0,62.62,58.72s-4.16,6-16.43,2.71a57.37,57.37,0,0,1-7.48-3.54S35,55.81,38.71,56.44Z"/><path class="cls-3" d="M21.11,30.52a34.84,34.84,0,0,0-.49,9.7s.42,7.07,2.7,9.56c0,0,1.46,3.33,6.45,5.41s8.94,2.91,9.77,4.37c0,0,1.46.83-1.66.62,0,0-7.49,1-10.61.62,0,0-6.23.21-14.55-7.07,0,0-4.37-1.45-2.5-9.77a54.45,54.45,0,0,0,.42-8.11S8.35,27.74,13.76,28c0,0,4.49,0,6.52.95A1.49,1.49,0,0,1,21.11,30.52Z"/></g></g></g></svg>