<svg xmlns="http://www.w3.org/2000/svg" viewBox="0 0 123.68 293.11"><defs><style>.cls-1{fill:#006837;}.cls-2{fill:#42210b;stroke:#42210b;stroke-linecap:round;stroke-linejoin:round;stroke-width:2px;}.cls-3{fill:#8c0e03;}</style></defs><title>根和花</title><g id="图层_2" data-name="图层 2"><g id="donghua"><g id="_7" data-name="7"><path class="cls-1" d="M63,152a15.54,15.54,0,0,0,.37-4.43c-.29-4.74-3.07-11.28-16.88-8.79,0,0-4.44.63,1.27,3.78A44.45,44.45,0,0,0,56,145.73C59.79,146.48,63,152,63,152Z"/><path class="cls-1" d="M75.75,218.65s-1.29-11.89,11.56-14.46,14.13-10.28,14.13-10.28,5.14,9,0,10.28c-7,1.76-6.42,6.42-5.14,7.71a3.92,3.92,0,0,0,5.14,0s-3.86,3.85-9,2.56C86,213.18,75.75,218.65,75.75,218.65Z"/><path class="cls-2" d="M57.2,257.91s9.38-131.24,9.38-183c0,0,7.52,176,10.72,183C81.22,266.49,57.2,257.91,57.2,257.91Z"/><path class="cls-1" d="M72.28,293.11S30.92,224.83,0,235.65c0,0,18.55-24.73,34-23.19,18.55,0,23.65,13.75,26.28,21.65,1.55,4.64,2.68,23.47,7.73,20.1,4.64-3.1,9.75-25.08,30.92-27.83,0,0,24.74-1.55,24.74,18.55,0,0-21.64-4.64-44.83,15.46C78.85,260.39,65.49,276.8,72.28,293.11Z"/><path class="cls-1" d="M66.48,190.92s16.36-13.54,22.65-14.8c0,0,7.55-3.78,18.88,3.78,0,0-3.78-7.56-13.84-13.85,0,0-25.17-16.36-27.69,12.59Z"/><path class="cls-1" d="M66.48,190.92s-16.36-13.54-22.66-14.8c0,0-7.55-3.78-18.87,3.78,0,0,3.77-7.56,13.84-13.85,0,0,25.17-16.36,27.69,12.59Z"/><path class="cls-1" d="M66.48,127.53S77.69,118.25,82,117.39c0,0,5.18-2.59,12.94,2.59,0,0-2.59-5.18-9.49-9.49,0,0-17.25-11.21-19,8.63Z"/><path class="cls-1" d="M66.48,127.53S55.27,118.25,51,117.39c0,0-5.17-2.59-12.93,2.59,0,0,2.58-5.18,9.48-9.49,0,0,17.25-11.21,19,8.63Z"/><path class="cls-1" d="M71.12,90.33a12.28,12.28,0,0,1,10.82-6.18S77.3,91.88,71.12,90.33Z"/><g id="开花7"><path class="cls-3" d="M48.27.46s1.6-2.24,10.88,3.18l.11,0A52.39,52.39,0,0,0,67.85,5.6h.06c.68,0,13.2.31,15.08,0s7.23-1.26,8.93-.67a.32.32,0,0,0,.14,0c.57,0,4.43.48,4.43,6.43,0,6.43,5.35,10.44,7.07,12.86,1.61,2.25,7.4,9.32,8.68,10.93,0,0,4.48,6.07,2,10.56a.22.22,0,0,1,0,.08c-6.8,9.13-18.06,11.25-22,11.73a.55.55,0,0,1-.49-.89A26.07,26.07,0,0,0,95,50.83a.5.5,0,0,0,0-.13c.21-1.18,3.06-18.44-9.23-26.23a.44.44,0,0,1-.17-.16c-.56-.89-5.32-7.74-18.19-9.86a.21.21,0,0,1-.12,0c-.73-.31-8.8-3.52-18.92,2.92,0,0-1.44.8-2.09-2.42a34.81,34.81,0,0,0-1-3.85A8.79,8.79,0,0,1,48.27.46Z"/><path class="cls-3" d="M85.33,32.07c1.22.49,3.06,1.79,5.2,5.17l0,0c.28.38,4,5.58,2,10.51l-.08.14c-.49.77-5.09,8-5.73,9.55,0,0,0,0,0,0-.17.48-3.43,9.3-11.53,10.26h-.06c-.48.1-7.25,1.36-13.75-4.78l-.09-.1c-.45-.57-4.61-5.73-8.23-7l-.17,0c-.55-.09-3.7-.57-5.58-.88a.85.85,0,0,1-.72-.72c0-.32.12-.64.92-.64,1.61,0,6.75.32,8,1s8.61,3.4,10.77,2.94a.87.87,0,0,1,.36,0c1.13.21,6.64.83,12.65-5.19,0,0,5.12-4.47,5.78-9.28a.64.64,0,0,1,0-.07c.09-.37.91-3.9.32-6,0,0,0-.06,0-.09-.11-.3-.8-2.2-1.25-3.76A.89.89,0,0,1,85.33,32.07Z"/><path class="cls-3" d="M61.13,53.18s10,.64,13.5-7.4c0,0,2.41-6.59-.16-12.05,0,0-2.57-4.5-10.61-2.57,0,0-3.21-.65,1.61-4.5,0,0,4.5-3.54,8.36-3.22,0,0,7.39-1,9,10.61,0,0,1,9.32-2.89,13.18,0,0-3.54,6.43-10,7.07S61,54.3,61.13,53.18Z"/><path class="cls-3" d="M63.39,38.75a.92.92,0,0,1,1.22,1c-.39,1.92-1,6.47,1.5,6.47a6.23,6.23,0,0,0,6.43-3.86s1.61-4.5-.64-7.72c0,0-2.89-3.85-10-1,0,0-8,3.21-6.1,11.25,0,0,.64,5.14,5.14,6.43,0,0,6.43.64,8-2.25,0,0,.64-1-.65-.64s-3.53,1.28-5.46.32c0,0-4.5-2.57-2.57-7.07C60.33,41.77,61.82,39.33,63.39,38.75Z"/><path class="cls-3" d="M82.82,25.94a13.73,13.73,0,0,0-9.08-8.56,2.73,2.73,0,0,0-1.24-.08A31.13,31.13,0,0,1,65,17.17S53.74,13,48.59,19.75,44.74,25.85,44.74,30c0,0-4.18,8.68,1.93,16.4,0,0,6.1,6.43,9,6.75,0,0,3,.8,1.12-1.13,0,0-6.43-6.43-1.93-17,0,0,5.15-10.6,13.83-12.21,0,0,6.75-1,9,.64a35.64,35.64,0,0,1,4.17,2.9c.49.48.26.45.48.59S83,26.34,82.82,25.94Z"/><path class="cls-3" d="M46.45,18.39a3.25,3.25,0,0,1-1,1.59c-.07.06-.71,1-.75,1.05-.53.92-3.41,6.11-3.54,10v.64c0,1.4-1.33,8.18,4.15,15.71l.06.08c.38.4,3.69,3.89,6.72,5.1,0,0,.95.64-.92.33l-.09,0c-.67-.19-8.36-2.46-11.17-7.94a.42.42,0,0,0-.09-.14c-.72-.83-8.45-10-5.42-18.54,0,0,0-.06,0-.09.13-.63,1.93-8.25,11.18-8.62A.78.78,0,0,1,46.45,18.39Z"/><path class="cls-3" d="M41.52,8.5s-1.6-2.25-16.71,8c0,0-5.15,1.93-6.11,3.54,0,0-4.18,4.18,4.18,16.71a28.85,28.85,0,0,0,11.25,7.07s1.93,1.29,1-1.92c0,0-4.34-7.88-2.73-15.59,0,0,.32-3.22,3.54-7.4C35.9,18.94,44.25,8,41.52,8.5Z"/><path class="cls-3" d="M45.54,57.2a10.59,10.59,0,0,1,6.75,0s2.57,1,7.39,6.42c0,0,3.22,3.22,4.5,4.18,0,0,1.93,1.29-1,1.29,0,0-7.71,0-10.93-3.54C52.29,65.55,42.65,59.45,45.54,57.2Z"/><path class="cls-3" d="M36.11,45.41c.39-.79,1.07-1.39,1.88,1,0,0,3,17.52,17.52,23.3,0,0,12.21,5.47,29.25-1.61,0,0,3.21-2.57,1.28,1.61,0,0-8.35,15.75-22.5,15.43,0,0-2.25.64-5.78-2.25,0,0-1.43-1-5.53,0a10.41,10.41,0,0,1-7.53-1.07c-3.48-2-7.58-6.21-8.8-15.33,0,0-1.25-7.49-.21-19.55A4.21,4.21,0,0,1,36.11,45.41Z"/><path class="cls-3" d="M91.41,60.43c.27,0,3-.41,3.31-.34A19.53,19.53,0,0,0,102,56.71s3.53-1.93,1.28,2.9c0,0-2.89,8.35-9.32,12.85,0,0-8.36,7.4-12.86,7.72,0,0-1.45.16,1.13-2.09,0,0,5.14-4.5,6.1-8.36,0,0,.24-3.51.36-6.83A2.55,2.55,0,0,1,91.41,60.43Z"/><path class="cls-3" d="M59.85,87.25s19.93,1,32.46-11.25c0,0,9.65-7.07,13.18-15.11,0,0,2.89-9.32,4.5-9,0,0,8,3.54,8.68,10.93,0,0,1.41,5.65-2.91,7.95a18.16,18.16,0,0,0-2.66,1.65A67.84,67.84,0,0,0,96.81,90.79S90.38,100.11,71.42,95A88.32,88.32,0,0,1,59.85,89.5S54.06,86.29,59.85,87.25Z"/><path class="cls-3" d="M32.64,47.18c-.47,2.59-1.52,9.4-.76,15,0,0,.64,10.93,4.18,14.78,0,0,2.25,5.15,10,8.36s13.83,4.5,15.11,6.75c0,0,2.25,1.29-2.57,1,0,0-11.57,1.6-16.39,1,0,0-9.65.32-22.51-10.93,0,0-6.75-2.25-3.85-15.11a85.29,85.29,0,0,0,.64-12.53s-3.54-12.54,4.82-12.22c0,0,6.94,0,10.09,1.47A2.31,2.31,0,0,1,32.64,47.18Z"/></g></g></g></g></svg>