<svg xmlns="http://www.w3.org/2000/svg" viewBox="0 0 210.08 190.81"><defs><style>.cls-1{fill:#6d6875;}.cls-2{fill:#c7b299;}.cls-3{fill:#998675;}</style></defs><title>资源 7</title><g id="图层_2" data-name="图层 2"><g id="donghua"><path class="cls-1" d="M175.12,175c2.14-8.35,1.53-18.66,1.53-18.66h0c22.93-4.3,30.1-27.24,30.1-27.24,7.88-22.21-.72-49.44-.72-49.44-8.59-31.53-33.68-32.25-33.68-32.25h0C170.92,1.51,125.05.08,125.05.08c-31.53-1.43-43,17.2-43,17.2C76.32,23,65.57,95.39,65.57,95.39c-2.86,10-10,2.87-10,2.87C48,90.73,41,77.74,36.8,68.91c-1.83-3.83-3.58-7.77-4-12,3.47-5,4.36-10.6,1.75-14.55-4-6.05-14.61-6.06-23.73,0S-2.47,58.14,1.52,64.18c2.7,4.09,8.45,5.41,14.7,4l1,.32a10.83,10.83,0,0,1,6.1,5l23.62,42a82,82,0,0,1,7.15,16.09,67.81,67.81,0,0,1,3,24.19,57.12,57.12,0,0,0,1.58,17.75,3.47,3.47,0,0,0,1.69,2.13,120.5,120.5,0,0,0,112.21,2.53A5,5,0,0,0,175.12,175ZM159.49,38c-34-19.9-61.63-8.06-68.58-4.42a.82.82,0,0,1-1.15-1c8.58-28.74,36.73-25.3,36.73-25.3C154,10.3,159.61,31.1,160.66,37.14A.79.79,0,0,1,159.49,38Zm18.3,97.66a.52.52,0,0,1-.44-.5c-.18-5.19-2-57.32-2.78-68.14a1.08,1.08,0,0,1,.93-1.15c3.71-.45,16.52.1,18.35,28.86,0,0,1.43,25.79-5.73,34.39C188.12,129.07,183.34,136.58,177.79,135.61Z"/><ellipse class="cls-2" cx="16.21" cy="50.67" rx="11.91" ry="7.13" transform="translate(-25.06 17.1) rotate(-33.13)"/><path class="cls-3" d="M77.47,72.38c12.26-1.75,61.7-7.45,91.25,9.6a3.83,3.83,0,0,1,1.92,3.14v.19a3.78,3.78,0,0,1-5.46,3.54C154,83.4,125.67,75,79.81,81.19a4.93,4.93,0,0,1-5.53-5.65h0A3.75,3.75,0,0,1,77.47,72.38Z"/><path class="cls-3" d="M167.61,172.64C158.08,176,116.08,188.48,66.9,170a3.59,3.59,0,0,1-2.3-3q0-.3-.06-.63a3.6,3.6,0,0,1,4.63-3.78c14.88,4.54,60.21,16.29,96,3.3a3.61,3.61,0,0,1,4.81,3.95h0A3.58,3.58,0,0,1,167.61,172.64Z"/></g></g></svg>