<?xml version="1.0" encoding="utf-8"?>
<!-- Generator: Adobe Illustrator 23.0.6, SVG Export Plug-In . SVG Version: 6.00 Build 0)  -->
<svg version="1.1" id="图层_1" xmlns="http://www.w3.org/2000/svg" xmlns:xlink="http://www.w3.org/1999/xlink" x="0px" y="0px"
	 viewBox="0 0 546 961" style="enable-background:new 0 0 546 961;" xml:space="preserve">
<style type="text/css">
	.st0{clip-path:url(#SVGID_2_);fill:#E6D5CD;}
	.st1{opacity:0.3;clip-path:url(#SVGID_2_);}
	.st2{fill:#20323F;}
	.st3{fill:#1B3240;}
	.st4{clip-path:url(#SVGID_2_);fill:#606060;}
</style>
<title>用户页左边背景图</title>
<g>
	<defs>
		<rect id="SVGID_1_" width="546" height="960"/>
	</defs>
	<clipPath id="SVGID_2_">
		<use xlink:href="#SVGID_1_"  style="overflow:visible;"/>
	</clipPath>
	<rect x="1" class="st0" width="545" height="960"/>
	<g class="st1">
		<path class="st2" d="M-11.7,773.8c0,0,4.4-6.1,29.7,8.7c0.1,0.1,0.2,0.1,0.3,0.1c7.7,2.4,15.5,4.1,23.5,5.2h0.2
			c1.8,0,36,0.8,41.2,0s19.7-3.4,24.4-1.8c0.1,0,0.3,0.1,0.4,0.1c1.6,0.1,12.1,1.3,12.1,17.5c0,17.5,14.6,28.5,19.3,35.1
			c4.4,6.1,20.2,25.4,23.7,29.8c0,0,12.2,16.6,5.3,28.8l-0.1,0.2c-18.6,24.9-49.3,30.7-60.1,32c-0.8,0.1-1.6-0.5-1.7-1.3
			c-0.1-0.4,0.1-0.8,0.3-1.1c3.8-4.9,6.9-10.2,9.2-15.9c0-0.1,0.1-0.2,0.1-0.3c0.6-3.2,8.4-50.3-25.2-71.6c-0.2-0.1-0.3-0.3-0.4-0.4
			c-1.5-2.4-14.5-21.1-49.7-26.9c-0.1,0-0.2-0.1-0.3-0.1c-2-0.8-24-9.6-51.6,8c0,0-3.9,2.2-5.7-6.6c0-0.2-1.6-8-2.6-10.5
			C-21.3,798.4-25.4,784.2-11.7,773.8z"/>
		<path class="st2" d="M89.4,860.1c3.3,1.3,8.3,4.9,14.2,14.1c0,0,0.1,0.1,0.1,0.1c0.8,1,11,15.2,5.3,28.7c-0.1,0.1-0.1,0.3-0.2,0.4
			c-1.3,2.1-13.9,21.8-15.7,26.1c0,0,0,0.1,0,0.1c-0.5,1.3-9.4,25.4-31.5,28h-0.2c-1.3,0.3-19.8,3.7-37.5-13
			c-0.1-0.1-0.2-0.2-0.2-0.3c-1.2-1.6-12.6-15.6-22.5-19.1c-0.1-0.1-0.3-0.1-0.4-0.1c-1.5-0.2-10.1-1.6-15.2-2.4c-1-0.1-1.9-1-2-2
			c-0.1-0.9,0.3-1.8,2.5-1.8c4.4,0,18.4,0.9,21.9,2.6s23.5,9.2,29.4,8c0.3-0.1,0.7-0.1,1,0c3.1,0.6,18.1,2.3,34.5-14.2
			c0,0,14-12.2,15.8-25.3v-0.2c0.2-1,2.5-10.6,0.9-16.5c0-0.1-0.1-0.2-0.1-0.2c-0.3-0.8-2.2-6-3.4-10.3c-0.4-1.3,0.4-2.6,1.7-3
			C88.4,859.8,88.9,859.9,89.4,860.1z"/>
		<path class="st2" d="M23.4,917.7c0,0,27.2,1.8,36.8-20.2c0,0,6.6-18-0.4-32.9c0,0-7-12.3-29-7c0,0-8.8-1.8,4.4-12.3
			c0,0,12.3-9.7,22.8-8.8c0,0,20.2-2.6,24.6,28.9c0,0,2.6,25.4-7.9,36c0,0-9.7,17.5-27.2,19.3S23,920.7,23.4,917.7z"/>
		<path class="st2" d="M29.6,878.3c1.3-0.5,2.8,0.2,3.2,1.5c0.2,0.4,0.2,0.9,0.1,1.4c-1.1,5.2-2.7,17.6,4.1,17.6
			c0,0,12.3,1.8,17.5-10.5c0,0,4.4-12.3-1.8-21c0,0-7.9-10.5-27.2-2.6c0,0-21.9,8.8-16.7,30.7c0,0,1.8,14,14,17.5
			c0,0,17.5,1.8,21.9-6.1c0,0,1.8-2.6-1.8-1.8s-9.6,3.5-14.9,0.9c0,0-12.3-7-7-19.3C21.2,886.5,25.3,879.9,29.6,878.3z"/>
		<path class="st2" d="M82.6,843.3c-1.5-4.5-7.4-17.8-24.8-23.3c-1.1-0.3-2.3-0.4-3.4-0.2c-2.4,0.4-8.2,0.9-20.5-0.3
			c0,0-30.7-11.4-44.7,7s-10.5,16.7-10.5,28.1c0,0-11.4,23.7,5.3,44.7c0,0,16.7,17.5,24.6,18.4c0,0,8.3,2.2,3.1-3.1
			c0,0-17.5-17.5-5.3-46.5c0,0,14-28.9,37.7-33.3c0,0,18.4-2.6,24.6,1.8c0,0,8.9,5.4,11.4,7.9c1.3,1.3,0.7,1.2,1.3,1.6
			C82.2,846.6,83,844.4,82.6,843.3z"/>
		<path class="st2" d="M-19.1,928.6c0,0,9.6-3.5,18.4,0c0,0,7,2.6,20.2,17.5c0,0,8.8,8.8,12.3,11.4c0,0,5.3,3.5-2.6,3.5
			c0,0-21,0-29.8-9.7C-0.7,951.4-27,934.8-19.1,928.6z"/>
		<path class="st2" d="M-44.9,896.5c1.1-2.2,2.9-3.8,5.1,2.8c0,0,8.3,47.8,47.8,63.6c0,0,33.3,14.9,79.8-4.4c0,0,8.8-7,3.5,4.4
			c0,0-22.8,43-61.4,42.1c0,0-6.1,1.8-15.8-6.1c0,0-3.9-2.6-15.1,0c-7,1.6-14.3,0.6-20.6-2.9c-9.5-5.4-20.7-16.9-24-41.8
			c0,0-3.4-20.4-0.6-53.3C-45.9,899.2-45.5,897.8-44.9,896.5z"/>
		<path class="st2" d="M106,937.5c0.7,0.1,8.1-1.1,9-0.9c0,0,8.3-1.3,19.7-9.2c0,0,9.6-5.3,3.5,7.9c0,0-7.9,22.8-25.4,35.1
			c0,0-22.8,20.2-35.1,21c0,0-4,0.4,3.1-5.7c0,0,14-12.3,16.7-22.8c0,0,0.6-9.6,1-18.6c0.1-3.9,3.4-6.9,7.2-6.8
			C105.8,937.5,105.9,937.5,106,937.5z"/>
		<path class="st2" d="M19.9,1010.6c0,0,54.4,2.6,88.6-30.7c0,0,26.3-19.3,36-41.2c0,0,7.9-25.4,12.3-24.6c0,0,21.9,9.7,23.7,29.8
			c0,0,3.9,15.4-8,21.7c-2.5,1.3-5,2.8-7.2,4.5c-17.7,13.9-32.8,30.8-44.4,50.1c0,0-17.6,25.4-69.3,11.4c0,0-18.4-7-31.6-14.9
			C19.9,1016.8,4.1,1008,19.9,1010.6z"/>
		<path class="st2" d="M-54.4,901.3c-1.3,7.1-4.1,25.7-2.1,40.9c0,0,1.8,29.8,11.4,40.3c0,0,6.1,14,27.2,22.8s37.7,12.3,41.2,18.4
			c0,0,6.1,3.5-7,2.6c0,0-31.6,4.4-44.7,2.6c0,0-26.3,0.9-61.4-29.8c0,0-18.4-6.1-10.5-41.2c0,0,2.6-21,1.8-34.2
			c0,0-9.7-34.2,13.2-33.3c0,0,18.9,0,27.5,4C-55.3,895.7-53.8,898.5-54.4,901.3z"/>
	</g>
	<g class="st1">
		<path class="st3" d="M329.7,874.9c0,0,3-4.2,20.6,6l0.2,0.1c5.3,1.6,10.8,2.9,16.3,3.6h0.1c1.3,0,25,0.6,28.6,0s13.7-2.4,16.9-1.3
			c0.1,0,0.2,0,0.3,0c1.1,0.1,8.4,0.9,8.4,12.2c0,12.2,10.1,19.8,13.4,24.4c3,4.3,14,17.7,16.5,20.7c0,0,8.5,11.5,3.7,20l-0.1,0.1
			c-12.9,17.3-34.2,21.3-41.7,22.2c-0.5,0.1-1.1-0.2-1.2-0.7c-0.1-0.3,0-0.7,0.3-1c2.6-3.4,4.8-7.1,6.4-11c0-0.1,0.1-0.2,0.1-0.2
			c0.4-2.2,5.8-34.9-17.5-49.7c-0.1-0.1-0.2-0.2-0.3-0.3c-1.1-1.7-10.1-14.7-34.5-18.7c-0.1,0-0.2,0-0.2-0.1
			c-1.4-0.6-16.7-6.7-35.8,5.5c0,0-2.7,1.5-4-4.6c-0.5-2.5-1.1-4.9-1.8-7.3C323,891.9,320.2,882.1,329.7,874.9z"/>
		<path class="st3" d="M399.9,934.8c2.3,0.9,5.8,3.4,9.8,9.8l0.1,0.1c0.5,0.7,7.7,10.6,3.7,19.9c0,0.1-0.1,0.2-0.1,0.3
			c-0.9,1.5-9.6,15.1-10.9,18.1c0,0,0,0.1,0,0.1c-0.3,0.9-6.5,17.6-21.9,19.5h-0.1c-0.9,0.2-13.8,2.6-26-9c-0.1-0.1-0.1-0.1-0.2-0.2
			c-0.9-1.1-8.7-10.9-15.6-13.3c-0.1,0-0.2-0.1-0.3-0.1c-1-0.2-7-1.1-10.6-1.7c-0.7-0.1-1.3-0.6-1.4-1.3c-0.1-0.6,0.2-1.2,1.8-1.2
			c3,0,12.8,0.6,15.2,1.8s16.3,6.4,20.4,5.6c0.2,0,0.5,0,0.7,0c2.1,0.4,12.6,1.6,24-9.8c0,0,9.7-8.5,11-17.6v-0.1
			c0.2-0.7,1.7-7.4,0.6-11.4L400,944c-0.2-0.6-1.5-4.2-2.4-7.1c-0.3-0.9,0.2-1.8,1.1-2.1C399.1,934.6,399.5,934.6,399.9,934.8z"/>
		<path class="st3" d="M354,974.8c0,0,18.9,1.2,25.6-14c0,0,4.6-12.5-0.3-22.8c0,0-4.9-8.5-20.1-4.9c0,0-6.1-1.2,3-8.5
			c0,0,8.5-6.7,15.8-6.1c0,0,14-1.8,17.1,20.1c0,0,1.8,17.7-5.5,25c0,0-6.7,12.2-18.9,13.4S353.7,976.9,354,974.8z"/>
		<path class="st3" d="M358.3,947.4c0.9-0.3,1.9,0.1,2.2,1c0.1,0.3,0.1,0.7,0.1,1c-0.8,3.6-1.9,12.3,2.9,12.3
			c5.2,0.6,10.2-2.4,12.2-7.3c0,0,3-8.5-1.2-14.6c0,0-5.5-7.3-18.9-1.8c0,0-15.2,6.1-11.6,21.3c0,0,1.2,9.8,9.8,12.2
			c0,0,12.2,1.2,15.2-4.3c0,0,1.2-1.8-1.2-1.2s-6.7,2.4-10.4,0.6c0,0-8.5-4.9-4.9-13.4C352.5,953.2,355.3,948.5,358.3,947.4z"/>
		<path class="st3" d="M395.1,923.2c-2.8-7.8-9.2-13.8-17.2-16.2c-0.8-0.2-1.6-0.3-2.4-0.2c-1.7,0.3-5.7,0.6-14.2-0.2
			c0,0-21.3-7.9-31.1,4.9S323,923,323,930.9c0,0-7.9,16.5,3.7,31.1c0,0,11.6,12.2,17.1,12.8c0,0,5.8,1.5,2.1-2.1
			c0,0-12.2-12.2-3.6-32.3c0,0,9.7-20.1,26.2-23.2c0,0,12.8-1.8,17.1,1.2c0,0,6.2,3.8,7.9,5.5c0.9,0.9,0.5,0.9,0.9,1.1
			C394.8,925.4,395.4,923.9,395.1,923.2z"/>
		<path class="st3" d="M326.2,908.8c-0.3,1.2-1,2.2-1.8,3c-0.1,0.1-1.3,1.8-1.4,2c-1,1.7-6.5,11.6-6.7,18.9c0,0.3,0,0.9,0,1.2
			c0.1,2.6-2.5,15.5,7.9,29.8l0.1,0.2c0.7,0.8,7,7.4,12.7,9.7c0,0,1.8,1.2-1.8,0.6H335c-1.3-0.4-15.9-4.7-21.2-15.1
			c0-0.1-0.1-0.2-0.2-0.3c-1.4-1.6-16-18.9-10.3-35.1c0,0,0-0.1,0-0.2c0.2-1.2,3.6-15.6,21.2-16.3c0.8,0,1.5,0.6,1.6,1.4
			C326.2,908.7,326.2,908.8,326.2,908.8z"/>
		<path class="st3" d="M316.9,890.1c0,0-3-4.3-31.7,15.2c0,0-9.8,3.7-11.6,6.7c0,0-7.9,7.9,7.9,31.7c0,0,9.1,9.8,21.3,13.4
			c0,0,3.7,2.4,1.8-3.7c0,0-8.2-14.9-5.2-29.5c0,0,0.6-6.1,6.7-14C306.2,909.9,322,889.2,316.9,890.1z"/>
		<path class="st3" d="M306.6,960.1c0.8-1.5,2-2.6,3.6,1.9c0,0,5.8,33.2,33.2,44.2c0,0,23.1,10.4,55.4-3c0,0,6.1-4.9,2.4,3
			c0,0-15.8,29.9-42.6,29.2c0,0-4.3,1.2-11-4.3c0,0-2.7-1.8-10.5,0c-4.8,1.2-9.9,0.4-14.3-2c-6.6-3.7-14.4-11.8-16.7-29
			c0,0-2.4-14.2-0.4-37C305.8,962,306.1,961,306.6,960.1z"/>
		<path class="st3" d="M300,963.4c-0.9,4.9-2.9,17.8-1.4,28.4c0,0,1.2,20.7,7.9,28c0,0,4.3,9.7,18.9,15.8s26.2,8.5,28.6,12.8
			c0,0,4.3,2.4-4.9,1.8c0,0-21.9,3-31.1,1.8c0,0-18.3,0.6-42.6-20.7c0,0-12.8-4.3-7.3-28.6c0,0,1.8-14.6,1.2-23.8
			c0,0-6.7-23.8,9.1-23.2c0,0,13.2,0,19.1,2.8C299.4,959.5,300.4,961.5,300,963.4z"/>
	</g>
	<rect x="1" y="960" class="st4" width="545" height="620"/>
</g>
</svg>
