<svg xmlns="http://www.w3.org/2000/svg" viewBox="0 0 122.24 113.65"><defs><style>.cls-1{opacity:0.3;}.cls-2{fill:#20323f;}</style></defs><title>漂浮半透明花朵</title><g id="图层_2" data-name="图层 2"><g id="购物车页"><g class="cls-1"><path class="cls-2" d="M39.08.54S41-2.1,51.89,4.29l.13.06A62.45,62.45,0,0,0,62.14,6.59h.07C63,6.62,77.75,7,80,6.6s8.52-1.48,10.52-.79a.47.47,0,0,0,.17,0c.67,0,5.21.56,5.21,7.57,0,7.57,6.3,12.3,8.33,15.14,1.89,2.65,8.71,11,10.22,12.87,0,0,5.27,7.15,2.3,12.45l-.06.09c-8,10.75-21.27,13.25-25.92,13.81a.65.65,0,0,1-.58-1,30.57,30.57,0,0,0,4-6.87.57.57,0,0,0,0-.14c.25-1.4,3.61-21.72-10.87-30.89a.69.69,0,0,1-.19-.19c-.67-1-6.27-9.12-21.43-11.61l-.14,0c-.86-.37-10.36-4.15-22.27,3.43,0,0-1.7.95-2.46-2.84A40.79,40.79,0,0,0,35.67,13,10.35,10.35,0,0,1,39.08.54Z"/><path class="cls-2" d="M82.73,37.76c1.43.58,3.59,2.12,6.11,6.09l0,.06c.33.45,4.76,6.57,2.29,12.38a.83.83,0,0,1-.09.16c-.58.91-6,9.41-6.75,11.25,0,0,0,0,0,.06-.21.57-4,10.95-13.58,12.08h-.07c-.56.12-8.54,1.61-16.19-5.63l-.11-.11c-.53-.68-5.42-6.75-9.69-8.24l-.2-.05c-.65-.1-4.36-.67-6.56-1a1,1,0,0,1-.86-.84c0-.38.14-.76,1.09-.76,1.89,0,7.94.38,9.46,1.13s10.15,4,12.69,3.46a1.24,1.24,0,0,1,.43,0c1.32.25,7.81,1,14.89-6.1,0,0,6-5.28,6.81-10.94,0,0,0-.05,0-.08.11-.44,1.08-4.59.39-7.1l0-.1c-.13-.36-.94-2.6-1.47-4.44A1,1,0,0,1,82.73,37.76Z"/><path class="cls-2" d="M54.22,62.62s11.74.76,15.9-8.7c0,0,2.84-7.77-.19-14.2,0,0-3-5.3-12.49-3,0,0-3.78-.76,1.89-5.3,0,0,5.3-4.16,9.85-3.78,0,0,8.7-1.14,10.6,12.49,0,0,1.13,11-3.41,15.52,0,0-4.17,7.57-11.74,8.33S54,64,54.22,62.62Z"/><path class="cls-2" d="M56.88,45.63a1.09,1.09,0,0,1,1.44,1.24c-.46,2.26-1.16,7.61,1.77,7.61a7.32,7.32,0,0,0,7.57-4.54s1.89-5.3-.76-9.08c0,0-3.4-4.55-11.73-1.14,0,0-9.46,3.79-7.19,13.25,0,0,.75,6.06,6.05,7.57,0,0,7.57.76,9.47-2.65,0,0,.75-1.14-.76-.76s-4.16,1.52-6.43.38c0,0-5.3-3-3-8.33C53.28,49.18,55,46.32,56.88,45.63Z"/><path class="cls-2" d="M79.77,30.54A16.18,16.18,0,0,0,69.08,20.47a3.19,3.19,0,0,0-1.47-.1,36.22,36.22,0,0,1-8.84-.15s-13.25-4.92-19.31,3-4.54,7.2-4.54,12.12c0,0-4.92,10.22,2.27,19.3,0,0,7.19,7.57,10.6,7.95,0,0,3.59,1,1.32-1.32,0,0-7.57-7.57-2.27-20.07,0,0,6.06-12.49,16.28-14.38,0,0,7.95-1.14,10.6.76A42.37,42.37,0,0,1,78.64,31c.57.57.3.53.56.7S79.93,31,79.77,30.54Z"/><path class="cls-2" d="M36.94,21.66a4,4,0,0,1-1.14,1.87c-.07.08-.83,1.15-.88,1.24-.62,1.07-4,7.19-4.17,11.73v.76c.06,1.64-1.57,9.63,4.89,18.5l.08.09c.44.47,4.34,4.59,7.9,6,0,0,1.12.75-1.08.39l-.11,0c-.78-.22-9.85-2.91-13.14-9.36a.91.91,0,0,0-.11-.16c-.85-1-10-11.74-6.39-21.84a.3.3,0,0,0,0-.1C23,30,25.08,21.06,36,20.62A.93.93,0,0,1,36.94,21.66Z"/><path class="cls-2" d="M31.13,10s-1.89-2.65-19.68,9.47c0,0-6.06,2.27-7.19,4.16,0,0-4.93,4.92,4.92,19.69,0,0,5.67,6,13.25,8.32,0,0,2.27,1.52,1.13-2.27,0,0-5.11-9.27-3.22-18.36,0,0,.38-3.78,4.17-8.7C24.51,22.31,34.35,9.44,31.13,10Z"/><path class="cls-2" d="M35.86,67.35a12.54,12.54,0,0,1,8,0s3,1.14,8.71,7.57c0,0,3.79,3.79,5.3,4.93,0,0,2.27,1.51-1.14,1.51,0,0-9.08,0-12.87-4.16C43.81,77.2,32.46,70,35.86,67.35Z"/><path class="cls-2" d="M24.76,53.47c.46-.93,1.26-1.64,2.21,1.2,0,0,3.59,20.63,20.63,27.45,0,0,14.38,6.43,34.45-1.9,0,0,3.78-3,1.51,1.9,0,0-9.84,18.55-26.5,18.17,0,0-2.65.75-6.81-2.65,0,0-1.69-1.13-6.5,0a12.28,12.28,0,0,1-8.88-1.27c-4.09-2.32-8.92-7.31-10.36-18,0,0-1.47-8.82-.25-23A5.09,5.09,0,0,1,24.76,53.47Z"/><path class="cls-2" d="M89.88,71.17c.32,0,3.51-.49,3.9-.41,0,0,3.6-.57,8.52-4,0,0,4.16-2.28,1.51,3.4,0,0-3.4,9.84-11,15.14,0,0-9.84,8.71-15.14,9.09,0,0-1.7.19,1.33-2.46,0,0,6-5.3,7.19-9.84,0,0,.27-4.13.42-8.05A3,3,0,0,1,89.88,71.17Z"/><path class="cls-2" d="M52.71,102.75s23.47,1.13,38.23-13.25c0,0,11.36-8.33,15.52-17.79,0,0,3.41-11,5.3-10.6,0,0,9.47,4.16,10.22,12.87,0,0,1.67,6.65-3.43,9.36a20.85,20.85,0,0,0-3.12,1.94,80,80,0,0,0-19.19,21.63s-7.57,11-29.9,4.92a103.85,103.85,0,0,1-13.63-6.43S45.9,101.61,52.71,102.75Z"/><path class="cls-2" d="M20.67,55.56c-.56,3-1.79,11.07-.89,17.66,0,0,.75,12.87,4.92,17.41,0,0,2.65,6.06,11.73,9.85s16.28,5.3,17.79,8c0,0,2.65,1.51-3,1.13,0,0-13.63,1.89-19.31,1.14,0,0-11.36.38-26.5-12.87,0,0-7.95-2.65-4.54-17.8C.85,80,2,71,1.61,65.27c0,0-4.17-14.76,5.67-14.38,0,0,8.18,0,11.88,1.72A2.72,2.72,0,0,1,20.67,55.56Z"/></g></g></g></svg>