<svg xmlns="http://www.w3.org/2000/svg" xmlns:xlink="http://www.w3.org/1999/xlink" viewBox="0 0 391.8 159.01"><defs><style>.cls-1{fill:#ebe6dd;}.cls-2{mask:url(#mask);}.cls-3{fill:url(#未命名的渐变_10);}.cls-4{fill:url(#未命名的渐变_10-2);}.cls-5{fill:url(#未命名的渐变_10-3);}.cls-6{fill:url(#未命名的渐变_10-4);}.cls-7{fill:url(#未命名的渐变_10-5);}.cls-8{fill:url(#未命名的渐变_10-6);}.cls-9{fill:url(#未命名的渐变_10-7);}</style><mask id="mask" x="0" y="0" width="159.01" height="159.01" maskUnits="userSpaceOnUse"><path class="cls-1" d="M115.38,34.08a43.68,43.68,0,0,0-11.64,1.69,13.2,13.2,0,0,1,1.72,7.33c1.42-.38,2.85-.75,4.28-1.07,1.68-.37,4-.43,4.83,1.45S113.62,47,112.15,48a22.3,22.3,0,0,0-.39,2.58,21.32,21.32,0,0,0,.28,5.64,6.06,6.06,0,0,0,.83,2.52,1.55,1.55,0,0,0,1.79.7c.63-.31,1-1.14,1.52-1.57a3.08,3.08,0,0,1,1.76-.65,7.37,7.37,0,0,1,4.19,1.43,16.42,16.42,0,0,1,5.37,5.53c.47-3.37,2.24-6.45,2.93-9.84a22.26,22.26,0,0,0-.07-4.89A5.64,5.64,0,0,0,127,45.94c-1.6-.67-3.39-.8-5-1.47s-1.92-2.33-1.4-3.93,1.35-3.14.07-4.7S117.27,34.05,115.38,34.08Z"/><path class="cls-1" d="M76.48,54.7c.9.44,1.38,1.34,2,2a7.69,7.69,0,0,0,2.34,1.74,82,82,0,0,0,8.73-2.73c-.78-2.3-3.26-3.37-5.38-4.09-1.38-.47-2.79-.87-4.18-1.3a29.83,29.83,0,0,0-4.52-1.29c-2.43-.35-4,1.78-5.44,3.45a39.76,39.76,0,0,1-5.3,5.32,43.66,43.66,0,0,1-6.25,4.27c-2,1.14-4.52,2.68-4.6,5.26,0,1.3.84,2.3,1.43,3.38a10.69,10.69,0,0,1,1.14,3.39,26.81,26.81,0,0,1-.15,7.59c-.3,2.7-.63,5.54.25,8.16.68,2,5.62,5.29,6,5.51A24.48,24.48,0,0,1,64.33,92,30.42,30.42,0,0,0,66.7,87.8a17.15,17.15,0,0,1-2.65-4.06c-1.75-5.09-.19-11.06,1.38-16a42.24,42.24,0,0,1,3.35-8.08,9.72,9.72,0,0,1,3.47-3.75C73.33,54.76,75,54,76.48,54.7Z"/><path class="cls-1" d="M140.67,101.34a18,18,0,0,0-3.74-9.17c-.7-1-2.15-2.94-3.57-2.42s-.79,2.57-.64,3.57a5,5,0,0,1-.55,3.56,2.33,2.33,0,0,1-3.16.65c-1.37-.82-1.64-2.41-1.7-3.87a16.51,16.51,0,0,0-.7-4.41,15.4,15.4,0,0,0-4.85-7.13A10.2,10.2,0,0,0,117.94,80a2.11,2.11,0,0,0-2.17.46,8.41,8.41,0,0,1-1.26,1.34,2.85,2.85,0,0,1-3.64-.69,8.31,8.31,0,0,1-1.49-4.44,23.61,23.61,0,0,1-.13-5c-1.47,2.64-3.23,5.83-3,8.59.32,4.06-.37,3.36,3,17.4,5.31,22.29-3.18,26.54-8.49,24.42-3.94-1.58-8.28-1.38-10.62,2.12-2.12,3.18-17.75-14.76-17.88-13.87a23.74,23.74,0,0,0,.6,9.23,27,27,0,0,0,10.47,14.86,35.64,35.64,0,0,0,17.8,6.7c2,.14,9.25-1.66,10.45-2.26a60.39,60.39,0,0,0,8.42-5.21,64.66,64.66,0,0,0,13.93-14c3.24-4.45,6.22-9.69,6.76-15.26C140.54,104.29,140.72,101.92,140.67,101.34Z"/><path class="cls-1" d="M28.39,53.72c-.83,1.63-1.35,4.24.31,5.57.94.76,2.27.6,3.38.47,1.43-.15,2.85-.36,4.27-.54A32.66,32.66,0,0,1,44.73,59c3.65.51,7.4,2.29,9.42,5.44a13.31,13.31,0,0,0-.81-6.11,28.86,28.86,0,0,1-1.78-3.45A5,5,0,0,1,52,51.34c1.21-2.52,3.85-3.72,6.12-5.09a38.13,38.13,0,0,0,6.65-5.08,39.3,39.3,0,0,0,2.93-3.12,23.05,23.05,0,0,1,2.44-2.69,6,6,0,0,1,3-1.53,9.59,9.59,0,0,1,4.22.71,76,76,0,0,1,8,2.59,7.83,7.83,0,0,1,4.66,4.44.66.66,0,0,1,0,.46l2.38-.65a.81.81,0,0,1,0-.16A11,11,0,0,0,92.15,38c-.27-1.41-4.35-7.22-5.27-7.79a14.9,14.9,0,0,1-2.77-1.72c-1.47-1.41-1.13-3.47-1.1-5.3,0-.74,0-1.7-.69-2.16-.85-.56-2.22-.25-3.14,0-3.89.94-6.93,3.87-10.31,5.84a14.78,14.78,0,0,1-5.43,2c-2.59.34-5.11-.39-7.63-.88a13,13,0,0,0-6.88.35A12.43,12.43,0,0,0,43.65,32a11.46,11.46,0,0,0-1.73,2.71,6,6,0,0,1-1.78,2.67c-1.8,1.26-4,.26-5.86-.35-.61-.2-2.55-1-2.83-.09s.42,2.18.61,3a14.33,14.33,0,0,1-.25,7.21C31.08,49.6,29.51,51.5,28.39,53.72Z"/><path class="cls-1" d="M11.36,76.71c-1.5,1.5-3.1,3-4.46,4.57-1.15,1.37-2.4,3.4-1.29,5.15.87,1.37,2.69,1.87,4.13,2.33a28.79,28.79,0,0,1,5.06,2.12A26.5,26.5,0,0,1,23,97.94c2.28,3,4.44,7.56,8.76,7.73.48,0-1.44-11.3-3.05-14.07-1.51-2.59-3.11-5.28-3.06-8.38a.74.74,0,0,1,.73-.73,12.39,12.39,0,0,1,6.86,2.07,51.62,51.62,0,0,1,10,8.31c2.24,2.3,6.07,6.73,6.05,6.4-.22-3-5-12.75-5.85-15.25-1.1-3.14-.5-9.93-.59-10.14a8.54,8.54,0,0,0-1.83-2.66c-3.73-3.7-9.35-3.77-14.23-3.24-1.53.17-3,.39-4.56.58a19.09,19.09,0,0,1-4.58-.33,6.28,6.28,0,0,1-1.35,3.23A53,53,0,0,1,11.36,76.71Z"/><path class="cls-1" d="M65.63,130c-3.38-3.45-7.08-12.42-7.11-12.47a61.19,61.19,0,0,0-10.05-12.07,55.92,55.92,0,0,0-6-4.91,13.31,13.31,0,0,0-6.75-2.77c.24,3.11,2.26,5.79,3.72,8.46a31.83,31.83,0,0,1,3.6,9.55c.26,1.48.28,7.58.8,9.11a23.61,23.61,0,0,0,4.5,7.22,35.82,35.82,0,0,0,12.64,9.5c9.1,4.1,28.74-.82,28.75-1.09a30.43,30.43,0,0,1-8-1.3A36.13,36.13,0,0,1,65.63,130Z"/><path class="cls-1" d="M145.89,81.23a75,75,0,0,0-1.46-10.12c-.54-3-.93-6.3.06-9.3a17.39,17.39,0,0,1,1-2.26,2.47,2.47,0,0,0,.29-2.09c-.59-1.25-2.27-1.32-3.39-.9a13,13,0,0,0-3.95,2.87,34.06,34.06,0,0,0-3.1,3.26,14.4,14.4,0,0,1-.3,2.61c-.83,4-3.56,7.89-2.94,12.17,0,.09.46,1.71.61,2.46a16.76,16.76,0,0,1,.29,2.35,6.82,6.82,0,0,0,.33,2.58c.26.56.92,1.22,1.58.86.47-.24.61-.89.67-1.37.17-1.32-.37-2.62-.25-4a2.82,2.82,0,0,1,2.37-2.76c1.43-.17,2.76.83,3.68,1.83a20.38,20.38,0,0,1,4.38,7.74A47.56,47.56,0,0,0,145.89,81.23Z"/><path class="cls-1" d="M107.23,61.85c.31-.88,1.72-.5,1.42.39l-.09.27A1.41,1.41,0,0,0,109,61c-.39-.76-1.5-.73-2.23-.66a21.37,21.37,0,0,0-3.43.81l-13.1,3.44c.89,0,1.86-.18,2.59.47,1.3,1.14.53,3.14-.34,4.28a9.24,9.24,0,0,1-7.61,3.59,13.58,13.58,0,0,0,5.78-.14c.92-.21,1.31,1.21.39,1.42-4,.92-9,.48-11.93-2.86a8.67,8.67,0,0,1-2-6.57,13.66,13.66,0,0,0-1,1.64,48.09,48.09,0,0,0-4.54,13.91,19.83,19.83,0,0,0-.19,6.29,10.49,10.49,0,0,0,.84,2.9,8.68,8.68,0,0,0,.73,1.3c.13.19.26.36.41.54a8.42,8.42,0,0,1,2.87-4.84,28.94,28.94,0,0,1,6.57-4.67,45.41,45.41,0,0,1,6.58-2.59,13.75,13.75,0,0,0,6-3.51c1.59-1.75,2.77-3.84,4.29-5.65a29.58,29.58,0,0,1,5.25-4.87c.54-.39,1.12-.74,1.68-1.1l.06-.08C106.79,63.28,107,62.56,107.23,61.85Z"/></mask><linearGradient id="未命名的渐变_10" y1="79.5" x2="159.01" y2="79.5" gradientUnits="userSpaceOnUse"><stop offset="0" stop-color="#ffba9c"/><stop offset="1" stop-color="#9db3ff"/></linearGradient><linearGradient id="未命名的渐变_10-2" x1="189.55" y1="84.07" x2="213.16" y2="84.07" xlink:href="#未命名的渐变_10"/><linearGradient id="未命名的渐变_10-3" x1="218.34" y1="84.07" x2="242.52" y2="84.07" xlink:href="#未命名的渐变_10"/><linearGradient id="未命名的渐变_10-4" x1="246.32" y1="84.08" x2="286.02" y2="84.08" xlink:href="#未命名的渐变_10"/><linearGradient id="未命名的渐变_10-5" x1="289.39" y1="84.49" x2="324.86" y2="84.49" xlink:href="#未命名的渐变_10"/><linearGradient id="未命名的渐变_10-6" x1="329.85" y1="84.07" x2="354.87" y2="84.07" xlink:href="#未命名的渐变_10"/><linearGradient id="未命名的渐变_10-7" x1="361.98" y1="84.07" x2="391.8" y2="84.07" xlink:href="#未命名的渐变_10"/></defs><title>SVG清晰logo</title><g id="图层_2" data-name="图层 2"><g id="主页二层及以后"><g class="cls-2"><circle class="cls-3" cx="79.5" cy="79.5" r="79.5"/></g><path class="cls-4" d="M213.16,66.08v2.33H195.6V81.27h12.7v2.34H195.6v18.45h-6v-36Z"/><path class="cls-5" d="M218.34,66.08h6.06V99.72h18.12v2.34H218.34Z"/><path class="cls-6" d="M266.16,102.9a20.33,20.33,0,0,1-7.8-1.49,19.75,19.75,0,0,1-6.3-4.09,19,19,0,0,1-4.2-6A18.4,18.4,0,0,1,247,78.91a18.33,18.33,0,0,1,2-4.45,18.7,18.7,0,0,1,3.08-3.76,19.46,19.46,0,0,1,4-2.9,20.33,20.33,0,0,1,4.77-1.87,21.62,21.62,0,0,1,10.68,0,20.6,20.6,0,0,1,4.76,1.87,18.94,18.94,0,0,1,4,2.9,19.41,19.41,0,0,1,3.08,3.76,17.62,17.62,0,0,1,2,4.45,17.81,17.81,0,0,1,.69,5,18.3,18.3,0,0,1-2.67,9.58,19.66,19.66,0,0,1-3.08,3.85,19.28,19.28,0,0,1-4,3,19.88,19.88,0,0,1-4.76,1.93A20.92,20.92,0,0,1,266.16,102.9Zm0-1.79a11.31,11.31,0,0,0,5.47-1.29,11.74,11.74,0,0,0,4-3.6,16.72,16.72,0,0,0,2.46-5.45,27.18,27.18,0,0,0,.82-6.89,26.38,26.38,0,0,0-.82-6.81,16.12,16.12,0,0,0-2.46-5.34,11.45,11.45,0,0,0-4-3.47,12.8,12.8,0,0,0-11,0,11.16,11.16,0,0,0-4,3.47,15.88,15.88,0,0,0-2.43,5.34,26.83,26.83,0,0,0-.81,6.81,27.65,27.65,0,0,0,.81,6.89,16.48,16.48,0,0,0,2.43,5.45,11.06,11.06,0,0,0,9.51,4.89Z"/><path class="cls-7" d="M295.77,66.08,309.36,94.7,322,66.08h2.88L308.52,102.9H307L289.39,66.08Z"/><path class="cls-8" d="M354.87,66.08v2.33h-19V81.27h12.7v2.34H335.9V99.72h19v2.34h-25v-36Z"/><path class="cls-9" d="M362,66.08h12.48a20.85,20.85,0,0,1,5.67.69,11.94,11.94,0,0,1,4.07,1.94,8.11,8.11,0,0,1,2.46,3,8.59,8.59,0,0,1,.83,3.76,7.75,7.75,0,0,1-.64,3.15,8.75,8.75,0,0,1-1.79,2.64,11,11,0,0,1-2.78,2,16.37,16.37,0,0,1-3.58,1.34l13.1,17.45h-7L372.26,85.15H368v16.91h-6Zm6,17.25h3.5a12.51,12.51,0,0,0,3.76-.54,9.38,9.38,0,0,0,3-1.53A6.9,6.9,0,0,0,381,75.68a7.79,7.79,0,0,0-.56-3,6.49,6.49,0,0,0-1.57-2.32,7.24,7.24,0,0,0-2.42-1.51,8.39,8.39,0,0,0-3-.54H368Z"/></g></g></svg>